<?xml version="1.0" encoding="us-ascii" standalone="no"?><svg xmlns="http://www.w3.org/2000/svg" xmlns:xlink="http://www.w3.org/1999/xlink" contentStyleType="text/css" height="575px" preserveAspectRatio="none" style="width:587px;height:575px;background:#FFFFFF;" version="1.1" viewBox="0 0 587 575" width="587px" zoomAndPan="magnify"><defs/><g><!--class Realtime--><g id="elem_Realtime"><rect codeLine="2" fill="#F1F1F1" height="48" id="Realtime" rx="2.5" ry="2.5" style="stroke:#181818;stroke-width:0.5;" width="92" x="238.58" y="7"/><ellipse cx="253.58" cy="23" fill="#ADD1B2" rx="11" ry="11" style="stroke:#181818;stroke-width:1.0;"/><path d="M256.5488,28.6406 Q255.9706,28.9375 255.33,29.0781 Q254.6894,29.2344 253.9862,29.2344 Q251.4862,29.2344 250.1581,27.5938 Q248.8456,25.9375 248.8456,22.8125 Q248.8456,19.6875 250.1581,18.0313 Q251.4862,16.375 253.9862,16.375 Q254.6894,16.375 255.33,16.5313 Q255.9862,16.6875 256.5488,16.9844 L256.5488,19.7031 Q255.9237,19.125 255.33,18.8594 Q254.7362,18.5781 254.1112,18.5781 Q252.7675,18.5781 252.08,19.6563 Q251.3925,20.7188 251.3925,22.8125 Q251.3925,24.9063 252.08,25.9844 Q252.7675,27.0469 254.1112,27.0469 Q254.7362,27.0469 255.33,26.7813 Q255.9237,26.5 256.5488,25.9219 L256.5488,28.6406 Z " fill="#000000"/><text fill="#000000" font-family="sans-serif" font-size="14" lengthAdjust="spacing" textLength="60" x="267.58" y="27.8467">Realtime</text><line style="stroke:#181818;stroke-width:0.5;" x1="239.58" x2="329.58" y1="39" y2="39"/><line style="stroke:#181818;stroke-width:0.5;" x1="239.58" x2="329.58" y1="47" y2="47"/></g><!--class Pcap--><g id="elem_Pcap"><rect codeLine="6" fill="#F1F1F1" height="48" id="Pcap" rx="2.5" ry="2.5" style="stroke:#181818;stroke-width:0.5;" width="66" x="392.58" y="7"/><ellipse cx="407.58" cy="23" fill="#ADD1B2" rx="11" ry="11" style="stroke:#181818;stroke-width:1.0;"/><path d="M410.5488,28.6406 Q409.9706,28.9375 409.33,29.0781 Q408.6894,29.2344 407.9863,29.2344 Q405.4863,29.2344 404.1581,27.5938 Q402.8456,25.9375 402.8456,22.8125 Q402.8456,19.6875 404.1581,18.0313 Q405.4863,16.375 407.9863,16.375 Q408.6894,16.375 409.33,16.5313 Q409.9863,16.6875 410.5488,16.9844 L410.5488,19.7031 Q409.9238,19.125 409.33,18.8594 Q408.7363,18.5781 408.1113,18.5781 Q406.7675,18.5781 406.08,19.6563 Q405.3925,20.7188 405.3925,22.8125 Q405.3925,24.9063 406.08,25.9844 Q406.7675,27.0469 408.1113,27.0469 Q408.7363,27.0469 409.33,26.7813 Q409.9238,26.5 410.5488,25.9219 L410.5488,28.6406 Z " fill="#000000"/><text fill="#000000" font-family="sans-serif" font-size="14" lengthAdjust="spacing" textLength="34" x="421.58" y="27.8467">Pcap</text><line style="stroke:#181818;stroke-width:0.5;" x1="393.58" x2="457.58" y1="39" y2="39"/><line style="stroke:#181818;stroke-width:0.5;" x1="393.58" x2="457.58" y1="47" y2="47"/></g><!--class Flow--><g id="elem_Flow"><rect codeLine="10" fill="#F1F1F1" height="129.4844" id="Flow" rx="2.5" ry="2.5" style="stroke:#181818;stroke-width:0.5;" width="298" x="81.58" y="115"/><ellipse cx="210.83" cy="131" fill="#B4A7E5" rx="11" ry="11" style="stroke:#181818;stroke-width:1.0;"/><path d="M206.7519,126.7656 L206.7519,124.6094 L214.1425,124.6094 L214.1425,126.7656 L211.6737,126.7656 L211.6737,134.8438 L214.1425,134.8438 L214.1425,137 L206.7519,137 L206.7519,134.8438 L209.2206,134.8438 L209.2206,126.7656 L206.7519,126.7656 Z " fill="#000000"/><text fill="#000000" font-family="sans-serif" font-size="14" font-style="italic" lengthAdjust="spacing" textLength="31" x="231.33" y="135.8467">Flow</text><line style="stroke:#181818;stroke-width:0.5;" x1="82.58" x2="378.58" y1="147" y2="147"/><line style="stroke:#181818;stroke-width:0.5;" x1="82.58" x2="378.58" y1="155" y2="155"/><ellipse cx="92.58" cy="168.6484" fill="#84BE84" rx="3" ry="3" style="stroke:#038048;stroke-width:1.0;"/><text fill="#000000" font-family="sans-serif" font-size="14" lengthAdjust="spacing" textLength="95" x="101.58" y="171.9951">new(...) : Flow</text><ellipse cx="92.58" cy="184.9453" fill="#84BE84" rx="3" ry="3" style="stroke:#038048;stroke-width:1.0;"/><text fill="#000000" font-family="sans-serif" font-size="14" lengthAdjust="spacing" textLength="228" x="101.58" y="188.292">update_flow(...) : Option&lt;String&gt;</text><ellipse cx="92.58" cy="201.2422" fill="#84BE84" rx="3" ry="3" style="stroke:#038048;stroke-width:1.0;"/><text fill="#000000" font-family="sans-serif" font-size="14" lengthAdjust="spacing" textLength="103" x="101.58" y="204.5889">dump() : String</text><ellipse cx="92.58" cy="217.5391" fill="#84BE84" rx="3" ry="3" style="stroke:#038048;stroke-width:1.0;"/><text fill="#000000" font-family="sans-serif" font-size="14" lengthAdjust="spacing" textLength="266" x="101.58" y="220.8857">dump_without_contamination() : String</text><ellipse cx="92.58" cy="233.8359" fill="#84BE84" rx="3" ry="3" style="stroke:#038048;stroke-width:1.0;"/><text fill="#000000" font-family="sans-serif" font-size="14" lengthAdjust="spacing" textLength="272" x="101.58" y="237.1826">get_first_timestamp() : DateTime&lt;Utc&gt;</text></g><!--class output--><g id="elem_output"><rect codeLine="18" fill="#F1F1F1" height="48" id="output" rx="2.5" ry="2.5" style="stroke:#181818;stroke-width:0.5;" width="78" x="414.58" y="155.5"/><ellipse cx="429.58" cy="171.5" fill="#B4A7E5" rx="11" ry="11" style="stroke:#181818;stroke-width:1.0;"/><path d="M425.5019,167.2656 L425.5019,165.1094 L432.8925,165.1094 L432.8925,167.2656 L430.4238,167.2656 L430.4238,175.3438 L432.8925,175.3438 L432.8925,177.5 L425.5019,177.5 L425.5019,175.3438 L427.9706,175.3438 L427.9706,167.2656 L425.5019,167.2656 Z " fill="#000000"/><text fill="#000000" font-family="sans-serif" font-size="14" font-style="italic" lengthAdjust="spacing" textLength="46" x="443.58" y="176.3467">output</text><line style="stroke:#181818;stroke-width:0.5;" x1="415.58" x2="491.58" y1="187.5" y2="187.5"/><line style="stroke:#181818;stroke-width:0.5;" x1="415.58" x2="491.58" y1="195.5" y2="195.5"/></g><!--class CicFlow--><g id="elem_CicFlow"><rect fill="#F1F1F1" height="48" id="CicFlow" rx="2.5" ry="2.5" style="stroke:#181818;stroke-width:0.5;" width="84" x="193.58" y="412"/><ellipse cx="208.58" cy="428" fill="#ADD1B2" rx="11" ry="11" style="stroke:#181818;stroke-width:1.0;"/><path d="M211.5487,433.6406 Q210.9706,433.9375 210.33,434.0781 Q209.6894,434.2344 208.9862,434.2344 Q206.4862,434.2344 205.1581,432.5938 Q203.8456,430.9375 203.8456,427.8125 Q203.8456,424.6875 205.1581,423.0313 Q206.4862,421.375 208.9862,421.375 Q209.6894,421.375 210.33,421.5313 Q210.9862,421.6875 211.5487,421.9844 L211.5487,424.7031 Q210.9237,424.125 210.33,423.8594 Q209.7362,423.5781 209.1112,423.5781 Q207.7675,423.5781 207.08,424.6563 Q206.3925,425.7188 206.3925,427.8125 Q206.3925,429.9063 207.08,430.9844 Q207.7675,432.0469 209.1112,432.0469 Q209.7362,432.0469 210.33,431.7813 Q210.9237,431.5 211.5487,430.9219 L211.5487,433.6406 Z " fill="#000000"/><text fill="#000000" font-family="sans-serif" font-size="14" lengthAdjust="spacing" textLength="52" x="222.58" y="432.8467">CicFlow</text><line style="stroke:#181818;stroke-width:0.5;" x1="194.58" x2="276.58" y1="444" y2="444"/><line style="stroke:#181818;stroke-width:0.5;" x1="194.58" x2="276.58" y1="452" y2="452"/></g><!--class CiddsFlow--><g id="elem_CiddsFlow"><rect fill="#F1F1F1" height="48" id="CiddsFlow" rx="2.5" ry="2.5" style="stroke:#181818;stroke-width:0.5;" width="102" x="45.58" y="412"/><ellipse cx="60.58" cy="428" fill="#ADD1B2" rx="11" ry="11" style="stroke:#181818;stroke-width:1.0;"/><path d="M63.5488,433.6406 Q62.9706,433.9375 62.33,434.0781 Q61.6894,434.2344 60.9863,434.2344 Q58.4863,434.2344 57.1581,432.5938 Q55.8456,430.9375 55.8456,427.8125 Q55.8456,424.6875 57.1581,423.0313 Q58.4863,421.375 60.9863,421.375 Q61.6894,421.375 62.33,421.5313 Q62.9863,421.6875 63.5488,421.9844 L63.5488,424.7031 Q62.9238,424.125 62.33,423.8594 Q61.7363,423.5781 61.1113,423.5781 Q59.7675,423.5781 59.08,424.6563 Q58.3925,425.7188 58.3925,427.8125 Q58.3925,429.9063 59.08,430.9844 Q59.7675,432.0469 61.1113,432.0469 Q61.7363,432.0469 62.33,431.7813 Q62.9238,431.5 63.5488,430.9219 L63.5488,433.6406 Z " fill="#000000"/><text fill="#000000" font-family="sans-serif" font-size="14" lengthAdjust="spacing" textLength="70" x="74.58" y="432.8467">CiddsFlow</text><line style="stroke:#181818;stroke-width:0.5;" x1="46.58" x2="146.58" y1="444" y2="444"/><line style="stroke:#181818;stroke-width:0.5;" x1="46.58" x2="146.58" y1="452" y2="452"/></g><!--class NfFlow--><g id="elem_NfFlow"><rect fill="#F1F1F1" height="48" id="NfFlow" rx="2.5" ry="2.5" style="stroke:#181818;stroke-width:0.5;" width="77" x="48.08" y="520"/><ellipse cx="63.08" cy="536" fill="#ADD1B2" rx="11" ry="11" style="stroke:#181818;stroke-width:1.0;"/><path d="M66.0488,541.6406 Q65.4706,541.9375 64.83,542.0781 Q64.1894,542.2344 63.4863,542.2344 Q60.9863,542.2344 59.6581,540.5938 Q58.3456,538.9375 58.3456,535.8125 Q58.3456,532.6875 59.6581,531.0313 Q60.9863,529.375 63.4863,529.375 Q64.1894,529.375 64.83,529.5313 Q65.4863,529.6875 66.0488,529.9844 L66.0488,532.7031 Q65.4238,532.125 64.83,531.8594 Q64.2363,531.5781 63.6113,531.5781 Q62.2675,531.5781 61.58,532.6563 Q60.8925,533.7188 60.8925,535.8125 Q60.8925,537.9063 61.58,538.9844 Q62.2675,540.0469 63.6113,540.0469 Q64.2363,540.0469 64.83,539.7813 Q65.4238,539.5 66.0488,538.9219 L66.0488,541.6406 Z " fill="#000000"/><text fill="#000000" font-family="sans-serif" font-size="14" lengthAdjust="spacing" textLength="45" x="77.08" y="540.8467">NfFlow</text><line style="stroke:#181818;stroke-width:0.5;" x1="49.08" x2="124.08" y1="552" y2="552"/><line style="stroke:#181818;stroke-width:0.5;" x1="49.08" x2="124.08" y1="560" y2="560"/></g><!--class BasicFlow--><g id="elem_BasicFlow"><rect fill="#F1F1F1" height="48" id="BasicFlow" rx="2.5" ry="2.5" style="stroke:#181818;stroke-width:0.5;" width="100" x="94.58" y="304"/><ellipse cx="109.58" cy="320" fill="#ADD1B2" rx="11" ry="11" style="stroke:#181818;stroke-width:1.0;"/><path d="M112.5488,325.6406 Q111.9706,325.9375 111.33,326.0781 Q110.6894,326.2344 109.9863,326.2344 Q107.4863,326.2344 106.1581,324.5938 Q104.8456,322.9375 104.8456,319.8125 Q104.8456,316.6875 106.1581,315.0313 Q107.4863,313.375 109.9863,313.375 Q110.6894,313.375 111.33,313.5313 Q111.9863,313.6875 112.5488,313.9844 L112.5488,316.7031 Q111.9238,316.125 111.33,315.8594 Q110.7363,315.5781 110.1113,315.5781 Q108.7675,315.5781 108.08,316.6563 Q107.3925,317.7188 107.3925,319.8125 Q107.3925,321.9063 108.08,322.9844 Q108.7675,324.0469 110.1113,324.0469 Q110.7363,324.0469 111.33,323.7813 Q111.9238,323.5 112.5488,322.9219 L112.5488,325.6406 Z " fill="#000000"/><text fill="#000000" font-family="sans-serif" font-size="14" lengthAdjust="spacing" textLength="68" x="123.58" y="324.8467">BasicFlow</text><line style="stroke:#181818;stroke-width:0.5;" x1="95.58" x2="193.58" y1="336" y2="336"/><line style="stroke:#181818;stroke-width:0.5;" x1="95.58" x2="193.58" y1="344" y2="344"/></g><!--class NTLFlow--><g id="elem_NTLFlow"><rect fill="#F1F1F1" height="48" id="NTLFlow" rx="2.5" ry="2.5" style="stroke:#181818;stroke-width:0.5;" width="89" x="301.08" y="304"/><ellipse cx="316.08" cy="320" fill="#ADD1B2" rx="11" ry="11" style="stroke:#181818;stroke-width:1.0;"/><path d="M319.0488,325.6406 Q318.4706,325.9375 317.83,326.0781 Q317.1894,326.2344 316.4863,326.2344 Q313.9863,326.2344 312.6581,324.5938 Q311.3456,322.9375 311.3456,319.8125 Q311.3456,316.6875 312.6581,315.0313 Q313.9863,313.375 316.4863,313.375 Q317.1894,313.375 317.83,313.5313 Q318.4863,313.6875 319.0488,313.9844 L319.0488,316.7031 Q318.4238,316.125 317.83,315.8594 Q317.2363,315.5781 316.6113,315.5781 Q315.2675,315.5781 314.58,316.6563 Q313.8925,317.7188 313.8925,319.8125 Q313.8925,321.9063 314.58,322.9844 Q315.2675,324.0469 316.6113,324.0469 Q317.2363,324.0469 317.83,323.7813 Q318.4238,323.5 319.0488,322.9219 L319.0488,325.6406 Z " fill="#000000"/><text fill="#000000" font-family="sans-serif" font-size="14" lengthAdjust="spacing" textLength="57" x="330.08" y="324.8467">NTLFlow</text><line style="stroke:#181818;stroke-width:0.5;" x1="302.08" x2="389.08" y1="336" y2="336"/><line style="stroke:#181818;stroke-width:0.5;" x1="302.08" x2="389.08" y1="344" y2="344"/></g><!--class Print--><g id="elem_Print"><rect fill="#F1F1F1" height="48" id="Print" rx="2.5" ry="2.5" style="stroke:#181818;stroke-width:0.5;" width="63" x="517.08" y="304"/><ellipse cx="532.08" cy="320" fill="#ADD1B2" rx="11" ry="11" style="stroke:#181818;stroke-width:1.0;"/><path d="M535.0487,325.6406 Q534.4706,325.9375 533.83,326.0781 Q533.1894,326.2344 532.4862,326.2344 Q529.9862,326.2344 528.6581,324.5938 Q527.3456,322.9375 527.3456,319.8125 Q527.3456,316.6875 528.6581,315.0313 Q529.9862,313.375 532.4862,313.375 Q533.1894,313.375 533.83,313.5313 Q534.4862,313.6875 535.0487,313.9844 L535.0487,316.7031 Q534.4237,316.125 533.83,315.8594 Q533.2362,315.5781 532.6112,315.5781 Q531.2675,315.5781 530.58,316.6563 Q529.8925,317.7188 529.8925,319.8125 Q529.8925,321.9063 530.58,322.9844 Q531.2675,324.0469 532.6112,324.0469 Q533.2362,324.0469 533.83,323.7813 Q534.4237,323.5 535.0487,322.9219 L535.0487,325.6406 Z " fill="#000000"/><text fill="#000000" font-family="sans-serif" font-size="14" lengthAdjust="spacing" textLength="31" x="546.08" y="324.8467">Print</text><line style="stroke:#181818;stroke-width:0.5;" x1="518.08" x2="579.08" y1="336" y2="336"/><line style="stroke:#181818;stroke-width:0.5;" x1="518.08" x2="579.08" y1="344" y2="344"/></g><!--class Csv--><g id="elem_Csv"><rect fill="#F1F1F1" height="48" id="Csv" rx="2.5" ry="2.5" style="stroke:#181818;stroke-width:0.5;" width="57" x="425.08" y="304"/><ellipse cx="440.08" cy="320" fill="#ADD1B2" rx="11" ry="11" style="stroke:#181818;stroke-width:1.0;"/><path d="M443.0488,325.6406 Q442.4706,325.9375 441.83,326.0781 Q441.1894,326.2344 440.4863,326.2344 Q437.9863,326.2344 436.6581,324.5938 Q435.3456,322.9375 435.3456,319.8125 Q435.3456,316.6875 436.6581,315.0313 Q437.9863,313.375 440.4863,313.375 Q441.1894,313.375 441.83,313.5313 Q442.4863,313.6875 443.0488,313.9844 L443.0488,316.7031 Q442.4238,316.125 441.83,315.8594 Q441.2363,315.5781 440.6113,315.5781 Q439.2675,315.5781 438.58,316.6563 Q437.8925,317.7188 437.8925,319.8125 Q437.8925,321.9063 438.58,322.9844 Q439.2675,324.0469 440.6113,324.0469 Q441.2363,324.0469 441.83,323.7813 Q442.4238,323.5 443.0488,322.9219 L443.0488,325.6406 Z " fill="#000000"/><text fill="#000000" font-family="sans-serif" font-size="14" lengthAdjust="spacing" textLength="25" x="454.08" y="324.8467">Csv</text><line style="stroke:#181818;stroke-width:0.5;" x1="426.08" x2="481.08" y1="336" y2="336"/><line style="stroke:#181818;stroke-width:0.5;" x1="426.08" x2="481.08" y1="344" y2="344"/></g><!--reverse link Flow to CicFlow--><g id="link_Flow_CicFlow"><path codeLine="22" d="M232.1825,262.0565 C233.2525,316.6865 234.39,374.4 235.13,411.96 " fill="none" id="Flow-backto-CicFlow" style="stroke:#181818;stroke-width:1.0;stroke-dasharray:7.0,7.0;"/><polygon fill="none" points="231.83,244.06,226.1836,262.174,238.1813,261.9391,231.83,244.06" style="stroke:#181818;stroke-width:1.0;"/></g><!--reverse link Flow to CiddsFlow--><g id="link_Flow_CiddsFlow"><path codeLine="23" d="M110.8045,256.1597 C91.4745,272.9897 87.55,281.14 76.58,304 C59.86,338.85 73.69,384.37 85.19,411.56 " fill="none" id="Flow-backto-CiddsFlow" style="stroke:#181818;stroke-width:1.0;stroke-dasharray:7.0,7.0;"/><polygon fill="none" points="124.38,244.34,106.8646,251.6346,114.7444,260.6849,124.38,244.34" style="stroke:#181818;stroke-width:1.0;"/></g><!--reverse link Flow to NfFlow--><g id="link_Flow_NfFlow"><path codeLine="24" d="M107.4497,255.1348 C85.1097,272.2448 77.78,281.41 61.58,304 C20.21,361.66 6,392.4 27.58,460 C34.78,482.57 50.61,504.25 64.06,519.79 " fill="none" id="Flow-backto-NfFlow" style="stroke:#181818;stroke-width:1.0;stroke-dasharray:7.0,7.0;"/><polygon fill="none" points="121.74,244.19,103.8015,250.3714,111.098,259.8982,121.74,244.19" style="stroke:#181818;stroke-width:1.0;"/></g><!--reverse link Flow to BasicFlow--><g id="link_Flow_BasicFlow"><path codeLine="25" d="M183.9997,259.8543 C171.5997,280.9843 167.68,287.65 158.25,303.71 " fill="none" id="Flow-backto-BasicFlow" style="stroke:#181818;stroke-width:1.0;stroke-dasharray:7.0,7.0;"/><polygon fill="none" points="193.11,244.33,178.8249,256.8175,189.1744,262.891,193.11,244.33" style="stroke:#181818;stroke-width:1.0;"/></g><!--reverse link Flow to NTLFlow--><g id="link_Flow_NTLFlow"><path codeLine="26" d="M291.7958,258.4877 C308.3858,279.6177 314.69,287.65 327.3,303.71 " fill="none" id="Flow-backto-NTLFlow" style="stroke:#181818;stroke-width:1.0;stroke-dasharray:7.0,7.0;"/><polygon fill="none" points="280.68,244.33,287.0765,262.1929,296.515,254.7824,280.68,244.33" style="stroke:#181818;stroke-width:1.0;"/></g><!--reverse link output to Print--><g id="link_output_Print"><path codeLine="27" d="M478.422,218.8135 C496.212,246.2535 515.84,276.51 533.6,303.9 " fill="none" id="output-backto-Print" style="stroke:#181818;stroke-width:1.0;stroke-dasharray:7.0,7.0;"/><polygon fill="none" points="468.63,203.71,473.3875,222.0775,483.4565,215.5495,468.63,203.71" style="stroke:#181818;stroke-width:1.0;"/></g><!--reverse link output to Csv--><g id="link_output_Csv"><path codeLine="28" d="M453.58,221.71 C453.58,249.15 453.58,276.51 453.58,303.9 " fill="none" id="output-backto-Csv" style="stroke:#181818;stroke-width:1.0;stroke-dasharray:7.0,7.0;"/><polygon fill="none" points="453.58,203.71,447.58,221.71,459.58,221.71,453.58,203.71" style="stroke:#181818;stroke-width:1.0;"/></g><!--link Realtime to Flow--><g id="link_Realtime_Flow"><path codeLine="29" d="M276.02,55.21 C270.07,71.35 265.9907,82.4307 258.1607,103.6707 " fill="none" id="Realtime-to-Flow" style="stroke:#181818;stroke-width:1.0;"/><polygon fill="#181818" points="254.01,114.93,259.8384,110.6839,258.1607,103.6707,252.3322,107.9168,254.01,114.93" style="stroke:#181818;stroke-width:1.0;"/></g><!--link Pcap to Flow--><g id="link_Pcap_Flow"><path codeLine="30" d="M394.68,55.21 C373.2,71.35 353.0527,86.4802 324.7927,107.7202 " fill="none" id="Pcap-to-Flow" style="stroke:#181818;stroke-width:1.0;"/><polygon fill="#181818" points="315.2,114.93,322.3996,114.5227,324.7927,107.7202,317.5931,108.1276,315.2,114.93" style="stroke:#181818;stroke-width:1.0;"/></g><!--link Realtime to output--><g id="link_Realtime_output"><path codeLine="31" d="M319.29,55.01 C342.15,70.8 372.24,92.84 396.58,115 C410.27,127.47 416.4084,133.7565 427.0584,146.2865 " fill="none" id="Realtime-to-output" style="stroke:#181818;stroke-width:1.0;"/><polygon fill="#181818" points="434.83,155.43,433.992,148.2678,427.0584,146.2865,427.8964,153.4488,434.83,155.43" style="stroke:#181818;stroke-width:1.0;"/></g><!--link Pcap to output--><g id="link_Pcap_output"><path codeLine="32" d="M430.02,55.21 C435.26,82.65 441.6793,116.223 446.9093,143.613 " fill="none" id="Pcap-to-output" style="stroke:#181818;stroke-width:1.0;"/><polygon fill="#181818" points="449.16,155.4,451.9637,148.7562,446.9093,143.613,444.1056,150.2567,449.16,155.4" style="stroke:#181818;stroke-width:1.0;"/></g><!--reverse link BasicFlow to CicFlow--><g id="link_BasicFlow_CicFlow"><path codeLine="33" d="M172.1363,361.1053 C187.2963,378.7653 200.33,393.94 215.56,411.68 " fill="none" id="BasicFlow-backto-CicFlow" style="stroke:#181818;stroke-width:1.0;"/><polygon fill="#181818" points="164.32,352,165.1931,359.1581,172.1363,361.1053,171.2632,353.9472,164.32,352" style="stroke:#181818;stroke-width:1.0;"/></g><!--reverse link BasicFlow to CiddsFlow--><g id="link_BasicFlow_CiddsFlow"><path codeLine="34" d="M129.2135,362.9331 C121.2235,380.5931 115.17,393.94 107.14,411.68 " fill="none" id="BasicFlow-backto-CiddsFlow" style="stroke:#181818;stroke-width:1.0;"/><polygon fill="#181818" points="134.16,352,128.0424,355.8177,129.2135,362.9331,135.3311,359.1154,134.16,352" style="stroke:#181818;stroke-width:1.0;"/></g><!--reverse link CicFlow to NfFlow--><g id="link_CicFlow_NfFlow"><path codeLine="35" d="M193.4717,466.9559 C168.5617,484.6759 144.06,502.11 119.1,519.86 " fill="none" id="CicFlow-backto-NfFlow" style="stroke:#181818;stroke-width:1.0;"/><polygon fill="#181818" points="203.25,460,196.0422,460.2185,193.4717,466.9559,200.6795,466.7374,203.25,460" style="stroke:#181818;stroke-width:1.0;"/></g><!--link NTLFlow to CicFlow--><g id="link_NTLFlow_CicFlow"><path codeLine="36" d="M321.71,352 C303.39,369.66 286.8311,385.6134 268.4211,403.3534 " fill="none" id="NTLFlow-to-CicFlow" style="stroke:#181818;stroke-width:1.0;"/><polygon fill="#181818" points="259.78,411.68,266.8761,410.3971,268.4211,403.3534,261.325,404.6364,259.78,411.68" style="stroke:#181818;stroke-width:1.0;"/></g><!--SRC=[PP113e8m44NtFKMNYg47CCI565T6ZUAwQKhH9b0QEiX2lRkb50Jihc_-pFm_F6V6u8jWESX2u1T27uIuWsVEj0TIWQWonWNUvsLZ8RPlXPLe5eIG9LuxxccjKmQ2PfRqrPC6MQhe2fLKzutNfNMX5ssrmoDA6mcFiWRAImMia8grxV_Qkm2QoSe0RSqRA-q6xkp-n9Be1dmpzM-dwXfyB1ScUXE2OybTWZ59KpDZnsm6jipyDHwJWoD-asDdQnec93PFD5mz38FkWExamszIxvf_2lyV7E0W38SOSzf7YKVKX_5stSo-_Gi0]--></g></svg>